<?xml version="1.0" standalone="no"?>
<!DOCTYPE svg PUBLIC "-//W3C//DTD SVG 20010904//EN"
 "http://www.w3.org/TR/2001/REC-SVG-20010904/DTD/svg10.dtd">
<svg version="1.0" xmlns="http://www.w3.org/2000/svg"
 width="500.000000pt" height="500.000000pt" viewBox="0 0 500.000000 500.000000"
 preserveAspectRatio="xMidYMid meet">
<metadata>
Created by potrace 1.11, written by Peter Selinger 2001-2013
</metadata>
<g transform="translate(0.000000,500.000000) scale(0.100000,-0.100000)"
fill="#000000" stroke="none">
<path d="M0 2500 l0 -2500 2500 0 2500 0 0 2500 0 2500 -2500 0 -2500 0 0
-2500z m1726 1451 c22 -10 50 -31 62 -46 53 -68 52 -32 52 -1346 0 -1184 -1
-1219 -20 -1281 -39 -128 -128 -190 -275 -192 -109 -1 -170 21 -228 83 -85 91
-81 46 -85 968 l-3 812 -297 3 c-276 3 -299 4 -331 23 -62 37 -76 66 -79 168
-5 164 32 195 314 257 97 22 200 51 228 64 105 48 176 125 258 279 62 117 117
183 173 208 55 25 175 25 231 0z m1850 4 c408 -66 650 -297 695 -665 31 -255
-63 -474 -258 -605 l-60 -39 89 -43 c98 -48 186 -126 231 -204 115 -196 123
-519 20 -763 -95 -226 -290 -396 -558 -485 -303 -101 -697 -88 -973 31 -281
122 -478 390 -460 623 10 115 86 208 196 239 69 19 85 20 153 5 76 -16 131
-72 199 -201 38 -71 73 -122 115 -164 81 -82 141 -105 290 -112 129 -5 200 7
284 49 78 39 133 96 173 177 32 65 33 70 33 197 0 127 -1 131 -31 185 -58 103
-145 148 -338 175 -65 9 -142 25 -172 36 -108 41 -156 125 -135 236 27 140 92
182 319 207 239 26 322 108 322 315 0 74 -4 95 -29 146 -67 143 -239 220 -436
195 -148 -19 -250 -90 -342 -240 -72 -116 -111 -160 -167 -186 -122 -57 -292
-9 -348 98 -18 36 -22 59 -21 133 3 326 284 574 748 660 97 18 350 18 461 0z"/>
</g>
</svg>
